# xmcd
#
# Track frame offsets:
#       150
#       13869
#       26122
#       37617
#       50922
#       64498
#       75560
#       87347
#       96119
#       110202
#       123707
#       135038
#       148935
#       160798
#       174807
#       186259
#       200142
#       212484
#       223244
#       237268
#       246984
#       261541
#
# Disc length: 3690 seconds
#
# Revision: 1
# Processed by: cddbd v1.4PL0 Copyright (c) Steve Scherf et al.
# Submitted via: MusiCat 1.1b3
#
DISCID=4d0e6816
DTITLE=Judy Garland - The Complete Decca Masters, Disc 2 - 1940-1945
DYEAR=1900
DGENRE=
TTITLE0=(Can This Be) The End Of The Rainbow
TTITLE1=Wearing Of The Green
TTITLE2=Friendship 
TTITLE3=Our Love Affair
TTITLE4=I'm Always Chasing Rainbows
TTITLE5=It's A Great Day For The Irish
TTITLE6=A Pretty Girl Milking Her Cow
TTITLE7=The Birthday Of A King
TTITLE8=The Star Of The East 
TTITLE9=How About You
TTITLE10=F. D. R. Jones 
TTITLE11=Blues In The Night (My Mama Done Tol' Me)
TTITLE12=Poor You
TTITLE13=The Last Call For Love 
TTITLE14=On The Sunny Side Of The Street
TTITLE15=Poor Little Rich Girl 
TTITLE16=That Old Black Magic
TTITLE17=I Never Knew (I Could Love Anybody Like I'm Loving You)
TTITLE18=No Love, No Nothin'
TTITLE19=A Journey To A Star
TTITLE20=This Heart Of Mine
TTITLE21=Love
EXTD=0\n\n\n
EXTT0=
EXTT1=
EXTT2=
EXTT3=
EXTT4=
EXTT5=
EXTT6=
EXTT7=
EXTT8=
EXTT9=
EXTT10=
EXTT11=
EXTT12=
EXTT13=
EXTT14=
EXTT15=
EXTT16=
EXTT17=
EXTT18=
EXTT19=
EXTT20=
EXTT21=
PLAYORDER=
